# xmcd
#
# Track frame offsets:
#	150
#	15749
#	36907
#	56299
#	75606
#	97064
#	120748
#	147808
#	165537
#
# Disc length: 2527 seconds
#
# Revision: 1
# Processed by: cddbd v1.5PL3 Copyright (c) Steve Scherf et al.
# Submitted via: audiograbber 1.81.03
#
DISCID=6d09dd09
DTITLE=Raymond and Co. - I wanna be
DYEAR=1999
DGENRE=Gospel
TTITLE0=I WANNA BE RIGHT
TTITLE1=JESUS IS THE LIGHT OF THE WORLD
TTITLE2=I WANNA BE ANOINTED
TTITLE3=SONG IN THE MIDNIGHT
TTITLE4=PLAYING GAMES (featuring Solid Rock)
TTITLE5=MY TESTIMONY WHERE I'M COMING FROM (featuring denzil greaves)
TTITLE6=TURN ME AROUND
TTITLE7=PEOPLE OF POWER
TTITLE8=HOLD ON
EXTD=
EXTT0=
EXTT1=
EXTT2=
EXTT3=
EXTT4=
EXTT5=
EXTT6=
EXTT7=
EXTT8=
PLAYORDER=
